<?xml version="1.0" encoding="UTF-8"?>
<svg version="1.1" xmlns="http://www.w3.org/2000/svg" width="1200" height="1200">
<path d="M0 0 C1.43676199 0.1794088 2.87361434 0.35809516 4.31054688 0.53613281 C73.01474685 9.13531979 139.03386877 29.09965971 201 60 C202.0297998 60.51288574 203.05959961 61.02577148 204.12060547 61.55419922 C243.41932336 81.25574362 280.2980658 105.77524691 314 134 C314.75676025 134.62938477 314.75676025 134.62938477 315.52880859 135.27148438 C323.0571868 141.53560714 330.36754315 147.99079033 337.54248047 154.65576172 C338.94599244 155.95019001 340.36529883 157.22742854 341.78515625 158.50390625 C348.13647937 164.2262125 354.25716539 170.15250185 360.3125 176.1875 C361.06547363 176.93588135 361.81844727 177.6842627 362.59423828 178.45532227 C366.69414407 182.5665688 370.62271248 186.76768441 374.41186523 191.16674805 C376.67135871 193.7749781 379.02293458 196.28738472 381.375 198.8125 C386.49000206 204.35659827 391.28724722 210.10905902 396 216 C396.91076019 217.11905814 397.82225476 218.23751888 398.734375 219.35546875 C424.32457923 250.84383488 446.17534909 285.07929882 465 321 C465.49064941 321.93602051 465.98129883 322.87204102 466.48681641 323.83642578 C488.7436485 366.62020937 504.76032766 412.16497601 516 459 C516.27440918 460.13808105 516.54881836 461.27616211 516.83154297 462.44873047 C521.699097 482.96951949 524.9468918 503.75297666 527.69146729 524.65124512 C527.88676696 526.13799532 528.08435416 527.62444835 528.28509521 529.11047363 C534.23711328 573.31886005 533.79660399 621.80790206 528 666 C527.82050118 667.4352858 527.64181873 668.87067389 527.46386719 670.30615234 C518.652634 740.70018601 497.62932619 807.58240628 466 871 C465.52062988 871.96276855 465.04125977 872.92553711 464.54736328 873.91748047 C445.52146568 911.85280456 421.2304552 947.47605877 394 980 C393.58572754 980.49918945 393.17145508 980.99837891 392.74462891 981.51269531 C386.21225549 989.38250024 379.42881697 996.96777485 372.44677734 1004.43994141 C370.20910053 1006.85282613 368.01628049 1009.3061708 365.8125 1011.75 C361.10029542 1016.89370006 356.23618574 1021.87118962 351.3125 1026.8125 C350.61165283 1027.51793945 349.91080566 1028.22337891 349.1887207 1028.95019531 C345.2022121 1032.92498027 341.11395166 1036.71817381 336.85083008 1040.39428711 C334.23802246 1042.66106401 331.71864106 1045.01732176 329.1875 1047.375 C323.64340173 1052.49000206 317.89094098 1057.28724722 312 1062 C310.88094186 1062.91076019 309.76248112 1063.82225476 308.64453125 1064.734375 C277.15616512 1090.32457923 242.92070118 1112.17534909 207 1131 C206.06397949 1131.49064941 205.12795898 1131.98129883 204.16357422 1132.48681641 C127.0422821 1172.60658857 37.14141406 1196.90785262 -50.109375 1197.203125 C-51.51735973 1197.21014757 -52.92534414 1197.21723438 -54.33332825 1197.22438049 C-58.80555686 1197.24377075 -63.27773358 1197.24881435 -67.75 1197.25 C-68.51200085 1197.25044186 -69.27400169 1197.25088371 -70.05909348 1197.25133896 C-92.84568898 1197.25826886 -115.37119103 1196.94346817 -138 1194 C-139.41524673 1193.82570058 -140.83061576 1193.65239177 -142.24609375 1193.47998047 C-164.05716659 1190.79740902 -185.58239206 1186.90876653 -207 1182 C-207.65166138 1181.85067017 -208.30332275 1181.70134033 -208.97473145 1181.54748535 C-231.12041883 1176.43480296 -252.59046321 1169.57225421 -274 1162 C-274.99670715 1161.64778381 -274.99670715 1161.64778381 -276.0135498 1161.28845215 C-294.86451711 1154.60206348 -313.00696578 1146.72196617 -331 1138 C-332.56790283 1137.24783203 -332.56790283 1137.24783203 -334.16748047 1136.48046875 C-349.5731794 1129.07205017 -364.36644372 1120.82883774 -379 1112 C-379.91410645 1111.4519873 -380.82821289 1110.90397461 -381.77001953 1110.33935547 C-406.48298439 1095.48478743 -429.9417924 1078.57533272 -452 1060 C-453.02841846 1059.14555958 -454.05707794 1058.29140922 -455.0859375 1057.4375 C-461.90155223 1051.75391166 -468.48713431 1045.86512746 -474.97265625 1039.80859375 C-477.4814994 1037.46820262 -480.04306933 1035.19724868 -482.625 1032.9375 C-487.81992372 1028.28175288 -492.74783489 1023.36161379 -497.6875 1018.4375 C-498.49590332 1017.63368896 -499.30430664 1016.82987793 -500.13720703 1016.00170898 C-504.39729812 1011.73066763 -508.50010042 1007.38461187 -512.43383789 1002.8112793 C-514.68418097 1000.2087391 -517.0299538 997.70507963 -519.375 995.1875 C-524.49000206 989.64340173 -529.28724722 983.89094098 -534 978 C-534.91076019 976.88094186 -535.82225476 975.76248112 -536.734375 974.64453125 C-562.32457923 943.15616512 -584.17534909 908.92070118 -603 873 C-603.49064941 872.06397949 -603.98129883 871.12795898 -604.48681641 870.16357422 C-626.7436485 827.37979063 -642.76032766 781.83502399 -654 735 C-654.41161377 733.29287842 -654.41161377 733.29287842 -654.83154297 731.55126953 C-659.69942677 711.02909025 -662.94545562 690.24494813 -665.69146729 669.34552002 C-665.88658462 667.86220369 -666.08414538 666.37920493 -666.28509521 664.89666748 C-672.18789172 621.25211569 -672.16130525 572.71912011 -666.27862549 529.07421875 C-665.97635672 526.82398835 -665.68695291 524.57228335 -665.39794922 522.3203125 C-658.10304487 466.17813599 -643.97677771 410.8432283 -621 359 C-620.3507959 357.53240234 -620.3507959 357.53240234 -619.68847656 356.03515625 C-609.10526669 332.25578915 -597.44789071 309.28950981 -584 287 C-583.4519873 286.08589355 -582.90397461 285.17178711 -582.33935547 284.22998047 C-567.48532197 259.51790489 -550.57798131 236.05496129 -532 214 C-531.13390387 212.95981082 -530.26803127 211.91943551 -529.40234375 210.87890625 C-523.56729245 203.89444822 -517.53772122 197.12489277 -511.34423828 190.45751953 C-510.04980999 189.05400756 -508.77257146 187.63470117 -507.49609375 186.21484375 C-501.7737875 179.86352063 -495.84749815 173.74283461 -489.8125 167.6875 C-489.06411865 166.93452637 -488.3157373 166.18155273 -487.54467773 165.40576172 C-483.4334312 161.30585593 -479.23231559 157.37728752 -474.83325195 153.58813477 C-472.2250219 151.32864129 -469.71261528 148.97706542 -467.1875 146.625 C-461.64340173 141.50999794 -455.89094098 136.71275278 -450 132 C-448.88094186 131.08923981 -447.76248112 130.17774524 -446.64453125 129.265625 C-415.15616512 103.67542077 -380.92070118 81.82465091 -345 63 C-344.06397949 62.50935059 -343.12795898 62.01870117 -342.16357422 61.51318359 C-278.75289028 28.52589665 -208.9026444 8.25160086 -138 0 C-136.82695313 -0.14953125 -135.65390625 -0.2990625 -134.4453125 -0.453125 C-90.82626693 -5.89378015 -43.56688328 -5.69077278 0 0 Z " fill="#007EBB" transform="translate(669,3)"/>
<path d="M0 0 C4.13114848 3.84932305 7.8792681 7.86887936 11.4375 12.25 C12.17355469 13.12527344 12.90960937 14.00054687 13.66796875 14.90234375 C26.09235377 30.25011348 34.87903724 47.69598644 41.4375 66.25 C41.68580566 66.94399902 41.93411133 67.63799805 42.18994141 68.35302734 C46.07978215 79.40793857 48.37818805 90.73134857 50.4375 102.25 C50.6540625 103.43722656 50.870625 104.62445312 51.09375 105.84765625 C54.15980327 124.04107528 53.57857466 142.53922756 53.55356562 160.92169356 C53.54920645 164.9473531 53.55071139 168.97301125 53.5514679 172.99867249 C53.5519897 179.95616544 53.54887901 186.91364895 53.54323006 193.87113953 C53.5350682 203.93023466 53.53249505 213.98932527 53.53124207 224.04842335 C53.52905888 240.37261685 53.52241874 256.69680532 53.51293945 273.02099609 C53.50374632 288.86897761 53.49668628 304.71695776 53.49243164 320.56494141 C53.49216364 321.55341194 53.49189565 322.54188248 53.49161953 323.56030667 C53.48953984 331.29194957 53.48758301 339.02359249 53.48566496 346.75523543 C53.47624841 384.58682824 53.45612606 422.41840844 53.4375 460.25 C3.9375 460.25 -45.5625 460.25 -96.5625 460.25 C-96.59988281 440.8934375 -96.63726563 421.536875 -96.67578125 401.59375 C-96.70606866 389.30728497 -96.73708327 377.02082818 -96.77148438 364.734375 C-96.78953092 358.27539123 -96.80739434 351.81640699 -96.82495117 345.35742188 C-96.8282627 344.14335136 -96.8282627 344.14335136 -96.83164114 342.90475416 C-96.86688322 329.88671141 -96.89181348 316.86866871 -96.91284702 303.85059613 C-96.93471197 290.46205554 -96.96786231 277.07357612 -97.01120156 263.68508768 C-97.03753548 255.44272484 -97.0553647 247.20043804 -97.06184604 238.95803529 C-97.06715647 233.28392467 -97.08355894 227.60990921 -97.10816566 221.93584985 C-97.12199037 218.67619253 -97.12976272 215.41673434 -97.12750816 212.15704346 C-97.11141305 178.1102099 -99.75637061 139.96671895 -124.71484375 114.01171875 C-140.53830453 99.2450093 -159.14983971 95.14339091 -180.125 95 C-181.1655957 94.99057373 -182.20619141 94.98114746 -183.27832031 94.97143555 C-206.73875296 95.06934129 -227.75179737 103.0774605 -244.73828125 119.33203125 C-269.1698339 144.90214169 -271.01778694 182.48738796 -270.99487305 215.71630859 C-271.00391165 218.3993358 -271.01411611 221.08233552 -271.02575684 223.76535034 C-271.0483313 229.49335707 -271.06039082 235.22130386 -271.06488609 240.94935226 C-271.07140099 249.23068315 -271.09443051 257.51190664 -271.12122939 265.79319377 C-271.16429346 279.23564911 -271.19437585 292.67809987 -271.21606445 306.12060547 C-271.23713573 319.16294605 -271.26449743 332.20524912 -271.30004883 345.24755859 C-271.30226234 346.06242347 -271.30447585 346.87728835 -271.30675644 347.71684611 C-271.32412122 354.09155383 -271.3418457 360.46626053 -271.35968363 366.84096694 C-271.44671871 397.9772879 -271.50243908 429.11359273 -271.5625 460.25 C-319.4125 460.25 -367.2625 460.25 -416.5625 460.25 C-416.5625 298.88 -416.5625 137.51 -416.5625 -28.75 C-368.7125 -28.75 -320.8625 -28.75 -271.5625 -28.75 C-271.2325 -7.96 -270.9025 12.83 -270.5625 34.25 C-266.6025 28.97 -262.6425 23.69 -258.5625 18.25 C-254.94258968 14.16300448 -251.34161102 10.17446144 -247.5625 6.25 C-246.985 5.6209375 -246.4075 4.991875 -245.8125 4.34375 C-236.32763627 -5.71020556 -224.39486718 -13.71860436 -212.5625 -20.75 C-211.70350098 -21.26191895 -211.70350098 -21.26191895 -210.82714844 -21.78417969 C-145.79656748 -59.89800868 -55.98393853 -49.12357692 0 0 Z " fill="#FEFEFE" transform="translate(929.5625,489.75)"/>
<path d="M0 0 C49.83 0 99.66 0 151 0 C151 161.37 151 322.74 151 489 C101.17 489 51.34 489 0 489 C0 327.63 0 166.26 0 0 Z " fill="#FEFEFE" transform="translate(265,461)"/>
<path d="M0 0 C1.58231017 1.35215597 3.14496226 2.72764229 4.6875 4.125 C5.50605469 4.85074219 6.32460938 5.57648438 7.16796875 6.32421875 C23.69661904 21.82783646 33.80915983 43.47751109 35.03515625 66.12109375 C35.80439983 92.16476523 27.91394821 115.59139224 9.94384766 134.84594727 C-6.92754774 152.35123902 -29.02065053 161.69938227 -53.24169922 162.58081055 C-77.05659317 162.95388444 -97.36537653 154.45377543 -115.3125 139.125 C-115.97507812 138.56425781 -116.63765625 138.00351562 -117.3203125 137.42578125 C-133.1909311 122.77314036 -143.23473963 100.18839299 -144.44238281 78.82763672 C-145.44227774 53.42121554 -138.81067255 31.30600088 -121.9375 11.9375 C-120.41434699 10.31574425 -118.87260659 8.71123903 -117.3125 7.125 C-116.55324219 6.35285156 -115.79398437 5.58070313 -115.01171875 4.78515625 C-83.97202438 -24.93370006 -33.5454238 -25.75623871 0 0 Z " fill="#FEFEFE" transform="translate(394.3125,234.875)"/>
</svg>
