{
    "asset" : {
        "generator" : "Khronos glTF Blender I/O v1.6.16",
        "version" : "2.0"
    },
    "scene" : 0,
    "scenes" : [
        {
            "name" : "Scene",
            "nodes" : [
                0,
                1,
                2,
                3,
                4,
                5,
                6,
                7
            ]
        }
    ],
    "nodes" : [
        {
            "mesh" : 0,
            "name" : "Ocean",
            "rotation" : [
                1,
                0,
                0,
                -1.6292068494294654e-07
            ]
        },
        {
            "mesh" : 1,
            "name" : "SouthAmerica",
            "rotation" : [
                0,
                0,
                0,
                -1
            ]
        },
        {
            "mesh" : 2,
            "name" : "NorthAmerica",
            "rotation" : [
                0,
                0,
                0,
                -1
            ]
        },
        {
            "mesh" : 3,
            "name" : "Antarctica",
            "rotation" : [
                0,
                0,
                0,
                -1
            ]
        },
        {
            "mesh" : 4,
            "name" : "Austrailia",
            "rotation" : [
                0,
                0,
                0,
                -1
            ]
        },
        {
            "mesh" : 5,
            "name" : "Africa",
            "rotation" : [
                0,
                0,
                0,
                -1
            ]
        },
        {
            "mesh" : 6,
            "name" : "Asia",
            "rotation" : [
                0,
                0,
                0,
                -1
            ]
        },
        {
            "mesh" : 7,
            "name" : "Europe",
            "rotation" : [
                0,
                0,
                0,
                -1
            ]
        }
    ],
    "materials" : [
        {
            "doubleSided" : true,
            "name" : "Material.001",
            "pbrMetallicRoughness" : {
                "baseColorFactor" : [
                    0,
                    0.0038471652660518885,
                    0.22025719285011292,
                    1
                ],
                "metallicFactor" : 0,
                "roughnessFactor" : 0.5
            }
        },
        {
            "doubleSided" : true,
            "name" : "Material.002",
            "pbrMetallicRoughness" : {
                "baseColorFactor" : [
                    0.017483288422226906,
                    0.32637545466423035,
                    0,
                    1
                ],
                "metallicFactor" : 0,
                "roughnessFactor" : 0.5
            }
        }
    ],
    "meshes" : [
        {
            "name" : "Icosphere",
            "primitives" : [
                {
                    "attributes" : {
                        "POSITION" : 0,
                        "NORMAL" : 1,
                        "TEXCOORD_0" : 2
                    },
                    "indices" : 3,
                    "material" : 0
                }
            ]
        },
        {
            "name" : "Sphere.001",
            "primitives" : [
                {
                    "attributes" : {
                        "POSITION" : 4,
                        "NORMAL" : 5,
                        "TEXCOORD_0" : 6
                    },
                    "indices" : 7,
                    "material" : 1
                }
            ]
        },
        {
            "name" : "Sphere.002",
            "primitives" : [
                {
                    "attributes" : {
                        "POSITION" : 8,
                        "NORMAL" : 9,
                        "TEXCOORD_0" : 10
                    },
                    "indices" : 11,
                    "material" : 1
                }
            ]
        },
        {
            "name" : "Sphere.003",
            "primitives" : [
                {
                    "attributes" : {
                        "POSITION" : 12,
                        "NORMAL" : 13,
                        "TEXCOORD_0" : 14
                    },
                    "indices" : 15,
                    "material" : 1
                }
            ]
        },
        {
            "name" : "Sphere.004",
            "primitives" : [
                {
                    "attributes" : {
                        "POSITION" : 16,
                        "NORMAL" : 17,
                        "TEXCOORD_0" : 18
                    },
                    "indices" : 19,
                    "material" : 1
                }
            ]
        },
        {
            "name" : "Sphere.005",
            "primitives" : [
                {
                    "attributes" : {
                        "POSITION" : 20,
                        "NORMAL" : 21,
                        "TEXCOORD_0" : 22
                    },
                    "indices" : 23,
                    "material" : 1
                }
            ]
        },
        {
            "name" : "Sphere.006",
            "primitives" : [
                {
                    "attributes" : {
                        "POSITION" : 24,
                        "NORMAL" : 25,
                        "TEXCOORD_0" : 26
                    },
                    "indices" : 27,
                    "material" : 1
                }
            ]
        },
        {
            "name" : "Sphere.007",
            "primitives" : [
                {
                    "attributes" : {
                        "POSITION" : 28,
                        "NORMAL" : 29,
                        "TEXCOORD_0" : 30
                    },
                    "indices" : 31,
                    "material" : 1
                }
            ]
        }
    ],
    "accessors" : [
        {
            "bufferView" : 0,
            "componentType" : 5126,
            "count" : 960,
            "max" : [
                1,
                1,
                0.9999999403953552
            ],
            "min" : [
                -0.9999999403953552,
                -1,
                -0.9999999403953552
            ],
            "type" : "VEC3"
        },
        {
            "bufferView" : 1,
            "componentType" : 5126,
            "count" : 960,
            "type" : "VEC3"
        },
        {
            "bufferView" : 2,
            "componentType" : 5126,
            "count" : 960,
            "type" : "VEC2"
        },
        {
            "bufferView" : 3,
            "componentType" : 5123,
            "count" : 960,
            "type" : "SCALAR"
        },
        {
            "bufferView" : 4,
            "componentType" : 5126,
            "count" : 672,
            "max" : [
                0.8375311493873596,
                0.3463835120201111,
                1.0105193853378296
            ],
            "min" : [
                0.13922889530658722,
                -0.8095586895942688,
                0.5391568541526794
            ],
            "type" : "VEC3"
        },
        {
            "bufferView" : 5,
            "componentType" : 5126,
            "count" : 672,
            "type" : "VEC3"
        },
        {
            "bufferView" : 6,
            "componentType" : 5126,
            "count" : 672,
            "type" : "VEC2"
        },
        {
            "bufferView" : 7,
            "componentType" : 5123,
            "count" : 696,
            "type" : "SCALAR"
        },
        {
            "bufferView" : 8,
            "componentType" : 5126,
            "count" : 2463,
            "max" : [
                0.39852795004844666,
                1.0216816663742065,
                1.0093584060668945
            ],
            "min" : [
                -0.49370211362838745,
                0.05730395019054413,
                0.038351114839315414
            ],
            "type" : "VEC3"
        },
        {
            "bufferView" : 9,
            "componentType" : 5126,
            "count" : 2463,
            "type" : "VEC3"
        },
        {
            "bufferView" : 10,
            "componentType" : 5126,
            "count" : 2463,
            "type" : "VEC2"
        },
        {
            "bufferView" : 11,
            "componentType" : 5123,
            "count" : 2559,
            "type" : "SCALAR"
        },
        {
            "bufferView" : 12,
            "componentType" : 5126,
            "count" : 1161,
            "max" : [
                0.37934496998786926,
                -0.8615826368331909,
                0.38674819469451904
            ],
            "min" : [
                -0.3284834623336792,
                -1.0290212631225586,
                -0.40526437759399414
            ],
            "type" : "VEC3"
        },
        {
            "bufferView" : 13,
            "componentType" : 5126,
            "count" : 1161,
            "type" : "VEC3"
        },
        {
            "bufferView" : 14,
            "componentType" : 5126,
            "count" : 1161,
            "type" : "VEC2"
        },
        {
            "bufferView" : 15,
            "componentType" : 5123,
            "count" : 1197,
            "type" : "SCALAR"
        },
        {
            "bufferView" : 16,
            "componentType" : 5126,
            "count" : 600,
            "max" : [
                -0.33632394671440125,
                -0.0014591244980692863,
                -0.029451286420226097
            ],
            "min" : [
                -0.8675565123558044,
                -0.7458762526512146,
                -0.8651593327522278
            ],
            "type" : "VEC3"
        },
        {
            "bufferView" : 17,
            "componentType" : 5126,
            "count" : 600,
            "type" : "VEC3"
        },
        {
            "bufferView" : 18,
            "componentType" : 5126,
            "count" : 600,
            "type" : "VEC2"
        },
        {
            "bufferView" : 19,
            "componentType" : 5123,
            "count" : 618,
            "type" : "SCALAR"
        },
        {
            "bufferView" : 20,
            "componentType" : 5126,
            "count" : 905,
            "max" : [
                1.0217796564102173,
                0.6115562915802002,
                0.2811986804008484
            ],
            "min" : [
                0.5882381796836853,
                -0.5743674635887146,
                -0.7811124920845032
            ],
            "type" : "VEC3"
        },
        {
            "bufferView" : 21,
            "componentType" : 5126,
            "count" : 905,
            "type" : "VEC3"
        },
        {
            "bufferView" : 22,
            "componentType" : 5126,
            "count" : 905,
            "type" : "VEC2"
        },
        {
            "bufferView" : 23,
            "componentType" : 5123,
            "count" : 945,
            "type" : "SCALAR"
        },
        {
            "bufferView" : 24,
            "componentType" : 5126,
            "count" : 2719,
            "max" : [
                0.7727437615394592,
                1.0037903785705566,
                0.012600422836840153
            ],
            "min" : [
                -0.6367199420928955,
                -0.1510910987854004,
                -1.0187448263168335
            ],
            "type" : "VEC3"
        },
        {
            "bufferView" : 25,
            "componentType" : 5126,
            "count" : 2719,
            "type" : "VEC3"
        },
        {
            "bufferView" : 26,
            "componentType" : 5126,
            "count" : 2719,
            "type" : "VEC2"
        },
        {
            "bufferView" : 27,
            "componentType" : 5123,
            "count" : 2799,
            "type" : "SCALAR"
        },
        {
            "bufferView" : 28,
            "componentType" : 5126,
            "count" : 894,
            "max" : [
                0.8165971040725708,
                0.968676745891571,
                0.12609820067882538
            ],
            "min" : [
                0.23502947390079498,
                0.5614628791809082,
                -0.44576600193977356
            ],
            "type" : "VEC3"
        },
        {
            "bufferView" : 29,
            "componentType" : 5126,
            "count" : 894,
            "type" : "VEC3"
        },
        {
            "bufferView" : 30,
            "componentType" : 5126,
            "count" : 894,
            "type" : "VEC2"
        },
        {
            "bufferView" : 31,
            "componentType" : 5123,
            "count" : 924,
            "type" : "SCALAR"
        }
    ],
    "bufferViews" : [
        {
            "buffer" : 0,
            "byteLength" : 11520,
            "byteOffset" : 0
        },
        {
            "buffer" : 0,
            "byteLength" : 11520,
            "byteOffset" : 11520
        },
        {
            "buffer" : 0,
            "byteLength" : 7680,
            "byteOffset" : 23040
        },
        {
            "buffer" : 0,
            "byteLength" : 1920,
            "byteOffset" : 30720
        },
        {
            "buffer" : 0,
            "byteLength" : 8064,
            "byteOffset" : 32640
        },
        {
            "buffer" : 0,
            "byteLength" : 8064,
            "byteOffset" : 40704
        },
        {
            "buffer" : 0,
            "byteLength" : 5376,
            "byteOffset" : 48768
        },
        {
            "buffer" : 0,
            "byteLength" : 1392,
            "byteOffset" : 54144
        },
        {
            "buffer" : 0,
            "byteLength" : 29556,
            "byteOffset" : 55536
        },
        {
            "buffer" : 0,
            "byteLength" : 29556,
            "byteOffset" : 85092
        },
        {
            "buffer" : 0,
            "byteLength" : 19704,
            "byteOffset" : 114648
        },
        {
            "buffer" : 0,
            "byteLength" : 5118,
            "byteOffset" : 134352
        },
        {
            "buffer" : 0,
            "byteLength" : 13932,
            "byteOffset" : 139472
        },
        {
            "buffer" : 0,
            "byteLength" : 13932,
            "byteOffset" : 153404
        },
        {
            "buffer" : 0,
            "byteLength" : 9288,
            "byteOffset" : 167336
        },
        {
            "buffer" : 0,
            "byteLength" : 2394,
            "byteOffset" : 176624
        },
        {
            "buffer" : 0,
            "byteLength" : 7200,
            "byteOffset" : 179020
        },
        {
            "buffer" : 0,
            "byteLength" : 7200,
            "byteOffset" : 186220
        },
        {
            "buffer" : 0,
            "byteLength" : 4800,
            "byteOffset" : 193420
        },
        {
            "buffer" : 0,
            "byteLength" : 1236,
            "byteOffset" : 198220
        },
        {
            "buffer" : 0,
            "byteLength" : 10860,
            "byteOffset" : 199456
        },
        {
            "buffer" : 0,
            "byteLength" : 10860,
            "byteOffset" : 210316
        },
        {
            "buffer" : 0,
            "byteLength" : 7240,
            "byteOffset" : 221176
        },
        {
            "buffer" : 0,
            "byteLength" : 1890,
            "byteOffset" : 228416
        },
        {
            "buffer" : 0,
            "byteLength" : 32628,
            "byteOffset" : 230308
        },
        {
            "buffer" : 0,
            "byteLength" : 32628,
            "byteOffset" : 262936
        },
        {
            "buffer" : 0,
            "byteLength" : 21752,
            "byteOffset" : 295564
        },
        {
            "buffer" : 0,
            "byteLength" : 5598,
            "byteOffset" : 317316
        },
        {
            "buffer" : 0,
            "byteLength" : 10728,
            "byteOffset" : 322916
        },
        {
            "buffer" : 0,
            "byteLength" : 10728,
            "byteOffset" : 333644
        },
        {
            "buffer" : 0,
            "byteLength" : 7152,
            "byteOffset" : 344372
        },
        {
            "buffer" : 0,
            "byteLength" : 1848,
            "byteOffset" : 351524
        }
    ],
    "buffers" : [
        {
            "byteLength" : 353372,
            "uri" : "data:application/octet-stream;base64,"
        }
    ]
}
